<?xml version="1.0" encoding="utf-8"?>
<!-- Generator: Adobe Illustrator 19.0.0, SVG Export Plug-In . SVG Version: 6.00 Build 0)  -->
<svg version="1.1" id="Layer_1" xmlns="http://www.w3.org/2000/svg" xmlns:xlink="http://www.w3.org/1999/xlink" x="0px" y="0px"
	 viewBox="0 0 1187.5 850.4" style="enable-background:new 0 0 1187.5 850.4;" xml:space="preserve">
<style type="text/css">
	.st0{fill:#FF7D41;}
	.st1{fill:#FFFFFF;}
</style>
<g>
	<path class="st0" d="M320,504.6c59.8-1.9,107.2-49.5,107.9-108.6v-50.8h65.8v56.2C492.4,492.8,413,564.9,320,566.9v0
		c-94.6-0.6-174.6-73.2-175.9-165.6v-101c-0.1-10.3,6.6-17,16.7-16.9l267.1,0v61.7l-209.4,0.1c-5.4,0-8.6,3.3-8.6,8.6V395
		C210.6,454.9,258.8,504,320,504.6L320,504.6z"/>
	<g>
		<path class="st1" d="M567.1,528l19.2,6.9c12.5-27.9,22.8-54.2,32.1-80.7l-19.2-6.8C589.8,472.1,576,508,567.1,528z"/>
		<path class="st1" d="M615.8,355.1c-9.2-8.1-23.6-19.1-33.7-26.6l-12.4,16.2c8.4,6.8,24.9,19,33.5,26.4L615.8,355.1z"/>
		<path class="st1" d="M615.8,410.9c-11.8-10.1-25.6-21-38.8-30.7l-12.3,16.2c13.6,9.9,27.1,20.7,38.5,30.4L615.8,410.9z"/>
		<path class="st1" d="M717.8,312h-22.6v24.9h-73.6V355l33.3,0l9.1,25.9l-36.1,0v157.7h20.4V399h48v18.6h-36.7v18.1h36.7v18.6h-30.5
			v56.4H733c7.8,0,14.2-6.3,14.2-14.2v-42.3h-30.5v-18.6H751v-18.1h-34.3V399h48v110.2c0,6.3-5.1,11.3-11.3,11.3h-24.1l5.3,18.1
			l22.2,0c15.6,0,28.3-12.7,28.3-28.3V380.8h-36.1L758,355h33.3v-18.1h-73.6V312z M729.1,472.4V487c0,3.1-2.5,5.7-5.7,5.7h-39.6
			v-20.2H729.1z M735.8,355l-7.7,25.9h-43.3l-7.7-25.9H735.8z"/>
		<path class="st1" d="M821.5,528l19.2,6.9c12.5-27.9,22.8-54.2,32.1-80.7l-19.2-6.8C844.2,472.1,830.4,508,821.5,528z"/>
		<path class="st1" d="M870.2,355.1c-9.2-8.1-23.6-19.1-33.7-26.6l-12.4,16.2c8.4,6.8,24.9,19,33.5,26.4L870.2,355.1z"/>
		<path class="st1" d="M870.2,410.9c-11.8-10.1-25.6-21-38.8-30.7l-12.3,16.2c13.6,9.9,27.1,20.7,38.5,30.4L870.2,410.9z"/>
		<path class="st1" d="M972.2,312h-22.6v24.9h-73.6V355l33.3,0l9.1,25.9l-36.1,0v157.7h20.4V399h48v18.6h-36.7v18.1h36.7v18.6h-30.5
			v56.4h67.3c7.8,0,14.2-6.3,14.2-14.2v-42.3h-30.5v-18.6h34.3v-18.1h-34.3V399h48v110.2c0,6.3-5.1,11.3-11.3,11.3h-24.1l5.3,18.1
			l22.2,0c15.6,0,28.3-12.7,28.3-28.3V380.8h-36.1l9.1-25.9h33.3v-18.1h-73.6V312z M983.5,472.4V487c0,3.1-2.5,5.7-5.7,5.7h-39.6
			v-20.2H983.5z M990.3,355l-7.7,25.9h-43.3l-7.7-25.9H990.3z"/>
	</g>
</g>
</svg>
