<?xml version="1.0" standalone="no"?><!DOCTYPE svg PUBLIC "-//W3C//DTD SVG 1.1//EN" "http://www.w3.org/Graphics/SVG/1.1/DTD/svg11.dtd"><svg t="1571975373488" class="icon" viewBox="0 0 1024 1024" version="1.1" xmlns="http://www.w3.org/2000/svg" p-id="14651" width="64" height="64" xmlns:xlink="http://www.w3.org/1999/xlink"><defs><style type="text/css"></style></defs><path d="M217.6 32h608a174.848 174.848 0 0 1 172.8 172.8v384a174.848 174.848 0 0 1-172.8 172.8H217.6c-44.8 0-89.6-19.2-121.6-51.2C64 684.8 44.8 640 44.8 595.2v-384c0-44.8 19.2-89.6 51.2-121.6C128 51.2 166.4 32 217.6 32z m473.6 384L531.2 512 371.2 601.6c-12.8 6.4-25.6 0-32-6.4V217.6c0-12.8 12.8-25.6 25.6-25.6 6.4 0 6.4 0 12.8 6.4l160 89.6L691.2 384c12.8 0 19.2 19.2 12.8 25.6-6.4 6.4-6.4 6.4-12.8 6.4zM512 473.6l128-70.4-128-76.8L384 256v294.4l128-76.8z m-160 320c25.6 0 44.8 6.4 57.6 25.6 12.8 12.8 19.2 19.2 19.2 38.4H960c12.8 0 19.2 12.8 19.2 19.2 0 12.8-12.8 19.2-19.2 19.2H435.2l-19.2 38.4c-19.2 19.2-38.4 25.6-64 25.6s-44.8-6.4-57.6-25.6c-12.8-12.8-19.2-19.2-19.2-38.4h-192c-12.8 0-19.2-12.8-19.2-19.2 0-12.8 12.8-19.2 19.2-19.2h192l19.2-38.4c12.8-12.8 38.4-25.6 57.6-25.6z m25.6 57.6c-6.4-6.4-19.2-12.8-25.6-12.8-12.8 0-19.2 6.4-25.6 12.8-6.4 6.4-12.8 12.8-12.8 25.6s6.4 19.2 12.8 25.6c6.4 6.4 19.2 12.8 25.6 12.8 12.8 0 19.2-6.4 25.6-12.8 6.4-6.4 12.8-12.8 12.8-25.6s-6.4-19.2-12.8-25.6z m448-742.4H217.6c-25.6 0-51.2 12.8-70.4 25.6-19.2 19.2-25.6 44.8-25.6 70.4v384c0 25.6 12.8 51.2 25.6 70.4 19.2 19.2 44.8 32 70.4 32h608c25.6 0 51.2-12.8 70.4-32 19.2-19.2 32-44.8 32-70.4v-384c0-25.6-12.8-51.2-32-70.4-19.2-12.8-38.4-25.6-70.4-25.6z" fill="#61ff00" p-id="14652"></path></svg>